<svg xmlns="http://www.w3.org/2000/svg" width="60" height="60" viewBox="0 0 60 60" fill="none">

  <defs>
    <linearGradient id="mqGrad" x1="6" y1="6" x2="54" y2="54" gradientUnits="userSpaceOnUse">
      <stop offset="0%" stop-color="#0F487A"/>
      <stop offset="55%" stop-color="#18A7A6"/>
      <stop offset="100%" stop-color="#69CDD2"/>
    </linearGradient>
  </defs>

  <path d="M12 22C12 20.9 12.9 20 14 20H23L27 24H46C47.1 24 48 24.9 48 26V40C48 42.2 46.2 44 44 44H16C13.8 44 12 42.2 12 40V22Z" stroke="url(#mqGrad)" stroke-width="3.4" stroke-linecap="round" stroke-linejoin="round"/>
  <path d="M31 28.5L32.9 32.3L37.1 32.9L34.1 35.8L34.8 40L31 38L27.2 40L27.9 35.8L24.9 32.9L29.1 32.3L31 28.5Z" stroke="url(#mqGrad)" stroke-width="3.0" stroke-linecap="round" stroke-linejoin="round"/>

</svg>
