<svg xmlns="http://www.w3.org/2000/svg" width="120" height="60" viewBox="0 0 120 60" fill="none">
  <defs>
    <linearGradient id="bgDark" x1="6" y1="10" x2="114" y2="50" gradientUnits="userSpaceOnUse">
      <stop offset="0%" stop-color="#0F487A"/>
      <stop offset="62%" stop-color="#335EAE"/>
      <stop offset="100%" stop-color="#18A7A6"/>
    </linearGradient>
    <radialGradient id="moonFill" cx="0" cy="0" r="1" gradientUnits="userSpaceOnUse" gradientTransform="translate(31 27) rotate(50) scale(20 20)">
      <stop offset="0%" stop-color="#FFFFFF"/>
      <stop offset="100%" stop-color="#DDEBF2"/>
    </radialGradient>
    <filter id="shadowDark" x="0" y="0" width="120" height="60" filterUnits="userSpaceOnUse" color-interpolation-filters="sRGB">
      <feDropShadow dx="0" dy="1.5" stdDeviation="2.2" flood-color="#08233F" flood-opacity="0.18"/>
    </filter>
  </defs>
  <g filter="url(#shadowDark)">
    <rect x="5" y="8" width="110" height="44" rx="22" fill="url(#bgDark)"/>
    <circle cx="21" cy="20" r="1.2" fill="#FFFFFF" opacity="0.35"/>
    <circle cx="42" cy="16" r="0.9" fill="#FFFFFF" opacity="0.28"/>
    <circle cx="67" cy="19" r="0.9" fill="#FFFFFF" opacity="0.26"/>
    <circle cx="80" cy="23" r="1.1" fill="#FFFFFF" opacity="0.32"/>
    <circle cx="94" cy="18" r="1" fill="#FFFFFF" opacity="0.22"/>
    <circle cx="74" cy="35" r="0.8" fill="#FFFFFF" opacity="0.25"/>
    <path d="M55 41C60 35 69 34 76 38" stroke="#FFFFFF" opacity="0.10" stroke-width="2.2" stroke-linecap="round"/>
    <path d="M63 15C67.5 12.8 72 13.3 76 16.4" stroke="#FFFFFF" opacity="0.09" stroke-width="2" stroke-linecap="round"/>
    <circle cx="30" cy="30" r="15" fill="url(#moonFill)"/>
    <circle cx="27" cy="26" r="3.2" fill="#BFD4DE" opacity="0.28"/>
    <circle cx="35" cy="34" r="2.3" fill="#BFD4DE" opacity="0.22"/>
  </g>
</svg>